<svg width="193" height="32" viewBox="0 0 193 32" fill="none" xmlns="http://www.w3.org/2000/svg">
<path fill-rule="evenodd" clip-rule="evenodd" d="M6.50002 25C2.0066 25 0 21.4351 0 17.9001C0 15.4854 0.825114 12.7048 2.20782 10.4589C3.53454 8.29003 5.1433 7 6.50002 7C7.85291 7 9.46094 8.29003 10.7993 10.4589C12.1755 12.7048 13 15.4854 13 17.9001C13 21.4351 10.9894 25 6.50002 25ZM41 12.3199H45.5581V24H50.4419V12.3199H55V8H41V12.3199ZM65.9438 12.32H73V8H65.9444C59.4612 8 56 11.216 56 16C56 20.784 59.4612 24 65.9444 24H73V19.68H65.9438C62.944 19.68 60.9711 18.61 60.9711 16C60.9711 13.39 62.944 12.32 65.9438 12.32ZM30.5485 8L27.9988 17.5502L25.4491 8H17V24H21.7825L21.7826 10.9857L25.2569 24H30.7407L34.2172 10.9774V24H39V8H30.5485Z" fill="#E30611"/>
<path d="M87.3 23.2C85.74 23.2 84.4933 22.86 83.56 22.18C82.64 21.5 82.1133 20.4667 81.98 19.08H83.86C83.9933 20.0667 84.3533 20.76 84.94 21.16C85.54 21.56 86.3267 21.76 87.3 21.76C88.6733 21.76 89.6667 21.3267 90.28 20.46C90.8933 19.58 91.2 18.3333 91.2 16.72H85.48V15.28H91.2C91.1867 14.5067 91.1067 13.82 90.96 13.22C90.8133 12.62 90.5867 12.1133 90.28 11.7C89.9733 11.2867 89.58 10.9733 89.1 10.76C88.62 10.5467 88.0533 10.44 87.4 10.44C85.4133 10.44 84.28 11.3667 84 13.22H82.12C82.2667 11.8733 82.7867 10.8333 83.68 10.1C84.5867 9.36667 85.8267 9 87.4 9C89.3467 9 90.78 9.58667 91.7 10.76C92.62 11.9333 93.08 13.7133 93.08 16.1C93.08 18.4733 92.6067 20.2533 91.66 21.44C90.7133 22.6133 89.26 23.2 87.3 23.2ZM93.9734 21.56H95.3934C95.5534 21.28 95.7201 20.9333 95.8934 20.52C96.0668 20.1067 96.2201 19.6 96.3534 19C96.5001 18.4 96.6134 17.7 96.6934 16.9C96.7868 16.0867 96.8334 15.1533 96.8334 14.1V9.2H105.593V21.56H107.353V26H105.733V23H95.5934V26H93.9734V21.56ZM98.4534 10.64V14.1C98.4534 15.1667 98.4134 16.1 98.3334 16.9C98.2668 17.7 98.1734 18.4 98.0534 19C97.9334 19.6 97.7934 20.1067 97.6334 20.52C97.4868 20.9333 97.3401 21.28 97.1934 21.56H103.793V10.64H98.4534ZM120.858 16.1C120.858 18.46 120.371 20.2333 119.398 21.42C118.424 22.6067 116.904 23.2 114.838 23.2C112.784 23.2 111.271 22.6067 110.298 21.42C109.324 20.22 108.838 18.4467 108.838 16.1C108.838 13.74 109.324 11.9667 110.298 10.78C111.271 9.59333 112.784 9 114.838 9C116.904 9 118.424 9.59333 119.398 10.78C120.371 11.9533 120.858 13.7267 120.858 16.1ZM118.978 15.44C118.978 13.84 118.644 12.6067 117.978 11.74C117.324 10.8733 116.278 10.44 114.838 10.44C113.398 10.44 112.351 10.8733 111.698 11.74C111.044 12.6067 110.718 13.84 110.718 15.44V16.72C110.718 18.3333 111.044 19.58 111.698 20.46C112.351 21.3267 113.398 21.76 114.838 21.76C116.278 21.76 117.324 21.3267 117.978 20.46C118.644 19.58 118.978 18.3333 118.978 16.72V15.44Z" fill="#E30611"/>
</svg>
